<svg xmlns="http://www.w3.org/2000/svg" viewBox="0 0 1000 750" style="font-family: system-ui, sans-serif; width: 100%; height: 100%;">
  <!-- Background - Changed to transparent -->
  <rect width="1000" height="750" fill="transparent" rx="8" />

  <!-- Definitions for reusable elements -->
  <defs>
    <!-- Gradient for the center logo -->
    <linearGradient id="logoGradient" x1="0%" y1="0%" x2="100%" y2="100%">
      <stop offset="0%" stop-color="#3d8ed4" stop-opacity="0.05" />
      <stop offset="100%" stop-color="#3d8ed4" stop-opacity="0.15" />
    </linearGradient>

    <!-- Gradient for connection lines -->
    <linearGradient id="lineGradient1" x1="0%" y1="0%" x2="100%" y2="0%">
      <stop offset="0%" stop-color="#3d8ed4" stop-opacity="0.7" />
      <stop offset="100%" stop-color="#3d8ed4" stop-opacity="0.9" />
    </linearGradient>

    <linearGradient id="lineGradient2" x1="100%" y1="0%" x2="0%" y2="0%">
      <stop offset="0%" stop-color="#3d8ed4" stop-opacity="0.7" />
      <stop offset="100%" stop-color="#3d8ed4" stop-opacity="0.9" />
    </linearGradient>

    <linearGradient id="lineGradient3" x1="0%" y1="0%" x2="0%" y2="100%">
      <stop offset="0%" stop-color="#3d8ed4" stop-opacity="0.7" />
      <stop offset="100%" stop-color="#3d8ed4" stop-opacity="0.9" />
    </linearGradient>

    <!-- Filter for subtle shadow -->
    <filter id="dropShadow" x="-20%" y="-20%" width="140%" height="140%">
      <feGaussianBlur in="SourceAlpha" stdDeviation="3" />
      <feOffset dx="2" dy="2" result="offsetblur" />
      <feComponentTransfer>
        <feFuncA type="linear" slope="0.2" />
      </feComponentTransfer>
      <feMerge>
        <feMergeNode />
        <feMergeNode in="SourceGraphic" />
      </feMerge>
    </filter>

    <!-- Patterns for icon backgrounds -->
    <pattern
      id="gridPattern"
      patternUnits="userSpaceOnUse"
      width="10"
      height="10"
      patternTransform="rotate(45)"
    >
      <rect width="10" height="10" fill="#3d8ed4" fill-opacity="0.05" />
      <path d="M 10 0 L 0 0 0 10" fill="none" stroke="#3d8ed4" stroke-width="0.5" stroke-opacity="0.1" />
    </pattern>
  </defs>

  <!-- Center Logo with subtle background -->
  <circle cx="500" cy="375" r="250" fill="url(#gridPattern)" />
  <g transform="translate(500, 375) scale(0.8)">
    <path
      d="M34.33,231.92l29.11-54.75,64.63,28.41,59.66,26.33h0s14.94,0,14.94,0c10.82-1.05,19.28-10.17,19.28-21.27,0-3.28-.74-6.39-2.06-9.17l-1.05-1.95-60-110.97-23.67,44.52,20.18,37.95c-.75-.29-1.49-.61-2.21-.99l-69.58-30.71,3.33-6.25,24.15-45.41,23.47-44.14L110.98,0l-23.47,43.41-24.35,45.03L2.92,199.87l-.71,1.31c-1.42,2.86-2.21,6.07-2.21,9.47,0,11.1,8.46,20.22,19.28,21.27h15.05Z"
      fill="url(#logoGradient)"
    />
  </g>

  <!-- Core Systems Circle -->
  <circle cx="500" cy="375" r="220" fill="none" stroke="#3d8ed4" stroke-width="1.5" stroke-dasharray="4,4" />

  <!-- Knowledge Collection - Top Section -->
  <g transform="translate(500, 125)">
    <rect
      x="-180"
      y="-60"
      width="360"
      height="120"
      rx="10"
      fill="#f8faff"
      stroke="#3d8ed4"
      stroke-width="1.5"
      filter="url(#dropShadow)"
    />
    <text x="0" y="-30" font-size="18" font-weight="600" text-anchor="middle" fill="#2c3e50">
      Knowledge Collection
    </text>

    <!-- Web Data Icon -->
    <g transform="translate(-120, 20)">
      <circle cx="0" cy="0" r="30" fill="#f0f7ff" stroke="#3d8ed4" stroke-width="1" />

      <!-- Globe Icon -->
      <g transform="scale(0.8)">
        <circle cx="0" cy="0" r="20" fill="none" stroke="#3d8ed4" stroke-width="2" />
        <ellipse cx="0" cy="0" rx="20" ry="10" fill="none" stroke="#3d8ed4" stroke-width="2" />
        <line x1="-20" y1="0" x2="20" y2="0" stroke="#3d8ed4" stroke-width="2" />
        <line x1="0" y1="-20" x2="0" y2="20" stroke="#3d8ed4" stroke-width="2" />
      </g>

      <text x="0" y="45" font-size="14" font-weight="500" text-anchor="middle" fill="#2c3e50">
        Web Data
      </text>
    </g>

    <!-- Government Data Icon -->
    <g transform="translate(0, 20)">
      <circle cx="0" cy="0" r="30" fill="#f0f7ff" stroke="#3d8ed4" stroke-width="1" />

      <!-- Building Icon -->
      <g transform="scale(0.7)">
        <rect x="-25" y="10" width="50" height="25" fill="#3d8ed4" />
        <rect x="-20" y="-15" width="40" height="25" fill="#3d8ed4" />
        <polygon points="0,-25 -30,0 30,0" fill="#3d8ed4" />
        <rect x="-5" y="10" width="10" height="25" fill="#f0f7ff" />
      </g>

      <text x="0" y="45" font-size="14" font-weight="500" text-anchor="middle" fill="#2c3e50">
        Gov Data
      </text>
    </g>

    <!-- FRED Data Icon -->
    <g transform="translate(120, 20)">
      <circle cx="0" cy="0" r="30" fill="#f0f7ff" stroke="#3d8ed4" stroke-width="1" />

      <!-- Chart Icon -->
      <g transform="scale(0.7)">
        <rect x="-25" y="-25" width="50" height="50" fill="none" stroke="#3d8ed4" stroke-width="2" />
        <polyline
          points="-20,10 -10,-5 0,15 10,0 20,10"
          fill="none"
          stroke="#3d8ed4"
          stroke-width="3"
          stroke-linecap="round"
          stroke-linejoin="round"
        />
      </g>

      <text x="0" y="45" font-size="14" font-weight="500" text-anchor="middle" fill="#2c3e50">
        FRED Data
      </text>
    </g>
  </g>

  <!-- AI-Optimized Indexing - Right Section -->
  <g transform="translate(750, 375)">
    <rect
      x="-140"
      y="-100"
      width="280"
      height="200"
      rx="10"
      fill="#f8faff"
      stroke="#3d8ed4"
      stroke-width="1.5"
      filter="url(#dropShadow)"
    />
    <text x="0" y="-70" font-size="18" font-weight="600" text-anchor="middle" fill="#2c3e50">
      AI-Optimized Indexing
    </text>

    <!-- Database Icon -->
    <g transform="translate(0, -20)">
      <ellipse cx="0" cy="-15" rx="40" ry="15" fill="#f0f7ff" stroke="#3d8ed4" stroke-width="1.5" />
      <path
        d="M-40,-15 L-40,15 C-40,23 -22,30 0,30 C22,30 40,23 40,15 L40,-15"
        fill="none"
        stroke="#3d8ed4"
        stroke-width="1.5"
      />
      <ellipse cx="0" cy="15" rx="40" ry="15" fill="none" stroke="#3d8ed4" stroke-width="1.5" />
      <line x1="-20" y1="-20" x2="-20" y2="20" stroke="#3d8ed4" stroke-width="1" stroke-dasharray="2,2" />
      <line x1="0" y1="-20" x2="0" y2="20" stroke="#3d8ed4" stroke-width="1" stroke-dasharray="2,2" />
      <line x1="20" y1="-20" x2="20" y2="20" stroke="#3d8ed4" stroke-width="1" stroke-dasharray="2,2" />
    </g>

    <!-- Metadata Structure -->
    <g transform="translate(0, 50)">
      <rect x="-100" y="-10" width="200" height="60" rx="5" fill="#f0f7ff" stroke="#3d8ed4" stroke-width="1" />
      <text x="0" y="-25" font-size="14" font-weight="500" text-anchor="middle" fill="#2c3e50">
        Metadata Structure
      </text>

      <g transform="translate(-75, 0)">
        <rect x="-15" y="-8" width="30" height="16" rx="2" fill="#3d8ed4" opacity="0.7" />
        <text x="0" y="4" font-size="10" font-weight="500" text-anchor="middle" fill="white">
          Key
        </text>
      </g>

      <g transform="translate(-25, 0)">
        <rect x="-15" y="-8" width="30" height="16" rx="2" fill="#3d8ed4" opacity="0.7" />
        <text x="0" y="4" font-size="10" font-weight="500" text-anchor="middle" fill="white">
          Tag
        </text>
      </g>

      <g transform="translate(25, 0)">
        <rect x="-15" y="-8" width="30" height="16" rx="2" fill="#3d8ed4" opacity="0.7" />
        <text x="0" y="4" font-size="10" font-weight="500" text-anchor="middle" fill="white">
          Ref
        </text>
      </g>

      <g transform="translate(75, 0)">
        <rect x="-15" y="-8" width="30" height="16" rx="2" fill="#3d8ed4" opacity="0.7" />
        <text x="0" y="4" font-size="10" font-weight="500" text-anchor="middle" fill="white">
          Date
        </text>
      </g>

      <line x1="-90" y1="20" x2="90" y2="20" stroke="#3d8ed4" stroke-width="1" stroke-dasharray="3,3" />
      <circle cx="-75" cy="20" r="3" fill="#3d8ed4" />
      <circle cx="-25" cy="20" r="3" fill="#3d8ed4" />
      <circle cx="25" cy="20" r="3" fill="#3d8ed4" />
      <circle cx="75" cy="20" r="3" fill="#3d8ed4" />
    </g>
  </g>

  <!-- Enterprise Solutions - Left Section -->
  <g transform="translate(250, 375)">
    <rect
      x="-140"
      y="-100"
      width="280"
      height="200"
      rx="10"
      fill="#f8faff"
      stroke="#3d8ed4"
      stroke-width="1.5"
      filter="url(#dropShadow)"
    />
    <text x="0" y="-70" font-size="18" font-weight="600" text-anchor="middle" fill="#2c3e50">
      Enterprise Solutions
    </text>

    <!-- Dashboard Icon -->
    <g transform="translate(0, -20)">
      <rect
        x="-50"
        y="-30"
        width="100"
        height="60"
        rx="5"
        fill="#f0f7ff"
        stroke="#3d8ed4"
        stroke-width="1.5"
      />
      <rect
        x="-45"
        y="-25"
        width="40"
        height="25"
        rx="2"
        fill="#3d8ed4"
        opacity="0.2"
        stroke="#3d8ed4"
        stroke-width="1"
      />
      <rect
        x="0"
        y="-25"
        width="40"
        height="25"
        rx="2"
        fill="#3d8ed4"
        opacity="0.2"
        stroke="#3d8ed4"
        stroke-width="1"
      />
      <rect
        x="-45"
        y="5"
        width="85"
        height="20"
        rx="2"
        fill="#3d8ed4"
        opacity="0.2"
        stroke="#3d8ed4"
        stroke-width="1"
      />

      <circle cx="-25" cy="-12.5" r="8" fill="#3d8ed4" opacity="0.6" />
      <rect x="10" y="-20" width="20" height="15" rx="2" fill="#3d8ed4" opacity="0.6" />
    </g>

    <!-- Knowledge Crawler -->
    <g transform="translate(0, 50)">
      <rect x="-100" y="-10" width="200" height="60" rx="5" fill="#f0f7ff" stroke="#3d8ed4" stroke-width="1" />
      <text x="0" y="-25" font-size="14" font-weight="500" text-anchor="middle" fill="#2c3e50">
        Knowledge Crawler
      </text>

      <!-- Spider/Crawler Icon -->
      <g transform="translate(0, 0) scale(0.8)">
        <circle cx="0" cy="0" r="15" fill="#3d8ed4" opacity="0.7" />
        <line x1="-30" y1="-30" x2="-10" y2="-10" stroke="#3d8ed4" stroke-width="2" />
        <line x1="30" y1="-30" x2="10" y2="-10" stroke="#3d8ed4" stroke-width="2" />
        <line x1="-30" y1="0" x2="-15" y2="0" stroke="#3d8ed4" stroke-width="2" />
        <line x1="30" y1="0" x2="15" y2="0" stroke="#3d8ed4" stroke-width="2" />
        <line x1="-30" y1="30" x2="-10" y2="10" stroke="#3d8ed4" stroke-width="2" />
        <line x1="30" y1="30" x2="10" y2="10" stroke="#3d8ed4" stroke-width="2" />
      </g>

      <path
        d="M-70,20 C-50,0 -30,30 -10,10 C10,30 30,0 50,20 C70,0 90,30 110,10"
        fill="none"
        stroke="#3d8ed4"
        stroke-width="1.5"
        stroke-dasharray="3,3"
        transform="translate(-60, 0) scale(0.5)"
      />
    </g>
  </g>

  <!-- Advanced Agent Solutions - Bottom Section -->
  <g transform="translate(500, 625)">
    <rect
      x="-220"
      y="-100"
      width="440"
      height="200"
      rx="10"
      fill="#f8faff"
      stroke="#3d8ed4"
      stroke-width="1.5"
      filter="url(#dropShadow)"
    />
    <text x="0" y="-70" font-size="18" font-weight="600" text-anchor="middle" fill="#2c3e50">
      Advanced Agent Solutions
    </text>

    <!-- Economic Agent -->
    <g transform="translate(-140, 0)">
      <circle cx="0" cy="0" r="40" fill="#f0f7ff" stroke="#3d8ed4" stroke-width="1.5" />

      <!-- Economic Icon -->
      <g transform="scale(0.8)">
        <path
          d="M-25,-15 L-5,10 L10,-5 L25,15"
          fill="none"
          stroke="#3d8ed4"
          stroke-width="3"
          stroke-linecap="round"
          stroke-linejoin="round"
        />
        <circle cx="-25" cy="-15" r="4" fill="#3d8ed4" />
        <circle cx="-5" cy="10" r="4" fill="#3d8ed4" />
        <circle cx="10" cy="-5" r="4" fill="#3d8ed4" />
        <circle cx="25" cy="15" r="4" fill="#3d8ed4" />
        <line x1="-30" y1="20" x2="30" y2="20" stroke="#3d8ed4" stroke-width="2" />
        <line x1="-30" y1="20" x2="-30" y2="15" stroke="#3d8ed4" stroke-width="2" />
      </g>

      <text x="0" y="55" font-size="14" font-weight="500" text-anchor="middle" fill="#2c3e50">
        Economic Agent
      </text>
    </g>

    <!-- Research Agent -->
    <g transform="translate(0, 0)">
      <circle cx="0" cy="0" r="40" fill="#f0f7ff" stroke="#3d8ed4" stroke-width="1.5" />

      <!-- Research Icon -->
      <g transform="scale(0.7)">
        <circle cx="-5" cy="-5" r="25" fill="none" stroke="#3d8ed4" stroke-width="3" />
        <line x1="12" y1="12" x2="30" y2="30" stroke="#3d8ed4" stroke-width="4" stroke-linecap="round" />
        <circle cx="-5" cy="-5" r="15" fill="#3d8ed4" opacity="0.2" />
      </g>

      <text x="0" y="55" font-size="14" font-weight="500" text-anchor="middle" fill="#2c3e50">
        Research Agent
      </text>
    </g>

    <!-- Predictive Insights -->
    <g transform="translate(140, 0)">
      <circle cx="0" cy="0" r="40" fill="#f0f7ff" stroke="#3d8ed4" stroke-width="1.5" />

      <!-- Predictive Icon -->
      <g transform="scale(0.7)">
        <path
          d="M-30,20 C-20,-20 -10,10 0,-10 C10,20 20,-15 30,0"
          fill="none"
          stroke="#3d8ed4"
          stroke-width="3"
          stroke-linecap="round"
          stroke-linejoin="round"
        />
        <circle cx="30" cy="0" r="5" fill="#3d8ed4" />
        <path d="M30,0 L40,10 L45,-5 Z" fill="#3d8ed4" />
      </g>

      <text x="0" y="55" font-size="14" font-weight="500" text-anchor="middle" fill="#2c3e50">
        Predictive Insights
      </text>
    </g>
  </g>

  <!-- Fixed Connection Lines -->

  <!-- Knowledge to Indexing - Curved path with arc -->
  <path d="M600,185 C675,220 725,280 730,300 A150,150 0 0 1 680,420" fill="none" stroke="url(#lineGradient1)" stroke-width="2" />
  <polygon points="680,420 677,405 692,410" fill="#3d8ed4" />

  <!-- Knowledge to Enterprise Solutions - Curved path with arc -->
  <path d="M400,185 C325,220 275,280 270,300 A150,150 0 0 0 320,420" fill="none" stroke="url(#lineGradient2)" stroke-width="2" />
  <polygon points="320,420 323,405 308,410" fill="#3d8ed4" />

  <!-- Enterprise Solutions to Agents - Arc path -->
  <path d="M260,450 A300,300 0 0 0 370,560" fill="none" stroke="url(#lineGradient3)" stroke-width="2" />
  <polygon points="370,560 360,550 375,545" fill="#3d8ed4" />

  <!-- Indexing to Agents - Arc path -->
  <path d="M740,450 A300,300 0 0 1 630,560" fill="none" stroke="url(#lineGradient3)" stroke-width="2" />
  <polygon points="630,560 640,550 625,545" fill="#3d8ed4" />

  <!-- Data Flow Labels with elegant backgrounds -->
  <g transform="translate(650, 245)">
    <rect
      x="-50"
      y="-12"
      width="100"
      height="24"
      rx="12"
      fill="white"
      stroke="#3d8ed4"
      stroke-width="0.5"
      filter="url(#dropShadow)"
    />
    <text x="0" y="5" font-size="12" font-weight="500" text-anchor="middle" fill="#2c3e50">
      Enrichment
    </text>
  </g>

  <g transform="translate(350, 245)">
    <rect
      x="-50"
      y="-12"
      width="100"
      height="24"
      rx="12"
      fill="white"
      stroke="#3d8ed4"
      stroke-width="0.5"
      filter="url(#dropShadow)"
    />
    <text x="0" y="5" font-size="12" font-weight="500" text-anchor="middle" fill="#2c3e50">
      Curation
    </text>
  </g>

  <g transform="translate(350, 510)">
    <rect
      x="-50"
      y="-12"
      width="100"
      height="24"
      rx="12"
      fill="white"
      stroke="#3d8ed4"
      stroke-width="0.5"
      filter="url(#dropShadow)"
    />
    <text x="0" y="5" font-size="12" font-weight="500" text-anchor="middle" fill="#2c3e50">
      API Access
    </text>
  </g>

  <g transform="translate(650, 510)">
    <rect
      x="-70"
      y="-12"
      width="140"
      height="24"
      rx="12"
      fill="white"
      stroke="#3d8ed4"
      stroke-width="0.5"
      filter="url(#dropShadow)"
    />
    <text x="0" y="5" font-size="12" font-weight="500" text-anchor="middle" fill="#2c3e50">
      Query Optimization
    </text>
  </g>

  <!-- Footer -->
  <g transform="translate(500, 700)">
    <line x1="-300" y1="0" x2="300" y2="0" stroke="#2c3e50" stroke-width="1" />
    <polygon points="300,0 290,-5 290,5" fill="#2c3e50" />
    <text x="0" y="25" font-size="14" font-style="italic" text-anchor="middle" fill="#5a6a7a">
      Delivering Superior Insights through Enterprise Knowledge Processing
    </text>
  </g>

  <!-- Logo Attribution -->
  <text x="500" y="740" font-size="10" text-anchor="middle" fill="#5a6a7a">
    © 2025 ALFReD Enterprise Knowledge Solutions
  </text>
</svg>